<svg width="38" height="34" viewBox="0 0 38 34" fill="none" xmlns="http://www.w3.org/2000/svg">
<path d="M12.2395 0.115837C11.3574 0.424576 10.7326 0.975899 10.343 1.80656L10.1077 2.29907L10.0857 3.93099L10.0636 5.57025H6.03531C3.47717 5.57025 1.85261 5.59966 1.58062 5.65112C0.860225 5.78343 0.353009 6.20979 0.110427 6.88608C0.014864 7.16541 0.000162021 8.15779 0.000162021 14.4576C0.000162021 22.4407 -0.0218909 22.0805 0.448571 22.6466C0.573538 22.8009 0.801418 22.9921 0.963139 23.0656L1.24983 23.2126V27.6673C1.24983 30.5562 1.27923 32.2249 1.33069 32.4233C1.4483 32.9012 1.8379 33.379 2.28631 33.6068L2.67591 33.798H18.8186H34.9614L35.351 33.6068C35.7994 33.379 36.189 32.9012 36.3066 32.4233C36.3581 32.2249 36.3875 30.5562 36.3875 27.6673V23.2126L36.6741 23.0656C36.8359 22.9921 37.0637 22.8009 37.1887 22.6466C37.6592 22.0805 37.6371 22.4407 37.6371 14.4576C37.6371 8.15779 37.6224 7.16541 37.5269 6.88608C37.2843 6.20979 36.7771 5.78343 36.0567 5.65112C35.7847 5.59966 34.1601 5.57025 31.602 5.57025H27.5736L27.5516 3.93099L27.5295 2.29172L27.2576 1.7404C26.9194 1.05676 26.4342 0.578945 25.7433 0.255505L25.2507 0.0202713L18.9289 0.00556946C13.0775 -0.00913239 12.5777 -0.00178146 12.2395 0.115837ZM25.214 1.38755C25.655 1.58603 25.9344 1.85802 26.1402 2.29907C26.3093 2.64457 26.3166 2.74748 26.3166 4.11476V5.57025H25.6918H25.067V4.21033C25.067 2.85775 25.067 2.84304 24.8832 2.66662L24.7068 2.48285H18.8186H12.9305L12.7541 2.66662C12.5703 2.84304 12.5703 2.85775 12.5703 4.21033V5.57025H11.9455H11.3207V4.11476C11.3207 2.81364 11.3427 2.62987 11.475 2.33583C11.6735 1.89477 11.9455 1.61543 12.3865 1.40961L12.7541 1.23318H18.8186C24.7582 1.23318 24.8905 1.24053 25.214 1.38755ZM23.8173 4.65138V5.57025H18.8186H13.82V4.65138V3.73251H18.8186H23.8173V4.65138ZM35.8876 6.90078C36.4169 7.04045 36.3875 6.59204 36.3875 14.4649C36.3875 22.3378 36.4169 21.8894 35.8876 22.0364C35.6009 22.1173 21.7664 24.0212 21.487 24.0212C21.3253 24.0212 21.318 23.9918 21.318 23.4405C21.318 22.5142 21.0239 21.9188 20.3697 21.5366C20.0389 21.3454 20.0021 21.3381 18.8186 21.3381C17.6351 21.3381 17.5984 21.3454 17.2676 21.5366C16.6133 21.9188 16.3193 22.5142 16.3193 23.4405C16.3193 23.9918 16.312 24.0212 16.1576 24.0212C15.8709 24.0212 2.03638 22.1173 1.74969 22.0364C1.22042 21.8894 1.24983 22.3378 1.24983 14.4649C1.24983 6.6582 1.22777 7.04045 1.71294 6.90078C2.05843 6.80522 35.5347 6.79786 35.8876 6.90078ZM19.8772 22.7421L20.0683 22.9406V24.9842C20.0683 27.1527 20.0463 27.3218 19.7228 27.4688C19.4949 27.5717 18.1424 27.5717 17.9145 27.4688C17.591 27.3218 17.569 27.1527 17.569 24.9842V22.9406L17.7601 22.7421C17.9512 22.5583 17.988 22.551 18.8186 22.551C19.6493 22.551 19.6861 22.5583 19.8772 22.7421ZM9.44616 24.3887C13.004 24.8739 16.0032 25.2929 16.1135 25.315L16.312 25.3517L16.334 26.3955C16.3561 27.5497 16.4369 27.8069 16.8706 28.248C17.3337 28.7038 17.5543 28.7626 18.8186 28.7626C20.083 28.7626 20.3035 28.7038 20.7666 28.248C21.2004 27.8069 21.2812 27.5497 21.3033 26.3955L21.3253 25.3517L21.5238 25.315C21.6341 25.2929 24.6333 24.8739 28.1911 24.3887C31.749 23.9036 34.7702 23.4846 34.9026 23.4625L35.1378 23.4184V27.7334C35.1378 32.1587 35.1304 32.2396 34.8511 32.4527C34.682 32.5851 2.95525 32.5851 2.78618 32.4527C2.50684 32.2396 2.49949 32.1587 2.49949 27.7334V23.4184L2.74207 23.4625C2.86704 23.4846 5.88829 23.9036 9.44616 24.3887Z" fill="#FFF3B0"/>
</svg>
