<svg width="24" height="24" viewBox="0 0 24 24" fill="none" xmlns="http://www.w3.org/2000/svg">
<g clip-path="url(#clip0_262_939)">
<path d="M11.5614 6.44958C8.38441 6.44958 5.80859 9.02541 5.80859 12.2024C5.80859 15.3794 8.38441 17.9552 11.5614 17.9552C14.7384 17.9552 17.3142 15.3794 17.3142 12.2024C17.3142 9.02541 14.7384 6.44958 11.5614 6.44958ZM11.5614 15.7979C9.57956 15.7979 7.9659 14.1842 7.9659 12.2024C7.9659 10.2191 9.57956 8.60689 11.5614 8.60689C13.5432 8.60689 15.1569 10.2191 15.1569 12.2024C15.1569 14.1842 13.5432 15.7979 11.5614 15.7979Z" fill="#335C67"/>
<path d="M15.8769 0.696777H7.24765C3.27678 0.696777 0.0566406 3.91691 0.0566406 7.88779V16.517C0.0566406 20.4879 3.27678 23.708 7.24765 23.708H15.8769C19.8477 23.708 23.0679 20.4879 23.0679 16.517V7.88779C23.0679 3.91691 19.8477 0.696777 15.8769 0.696777ZM20.9106 16.517C20.9106 19.2927 18.6526 21.5507 15.8769 21.5507H7.24765C4.47192 21.5507 2.21394 19.2927 2.21394 16.517V7.88779C2.21394 5.11206 4.47192 2.85408 7.24765 2.85408H15.8769C18.6526 2.85408 20.9106 5.11206 20.9106 7.88779V16.517Z" fill="#335C67"/>
<path d="M17.747 6.78467C18.1704 6.78467 18.5136 6.44147 18.5136 6.01811C18.5136 5.59476 18.1704 5.25156 17.747 5.25156C17.3237 5.25156 16.9805 5.59476 16.9805 6.01811C16.9805 6.44147 17.3237 6.78467 17.747 6.78467Z" fill="#335C67"/>
</g>
<defs>
<clipPath id="clip0_262_939">
<rect width="23.0112" height="23.0112" fill="white" transform="translate(0.0566406 0.696777)"/>
</clipPath>
</defs>
</svg>
