<svg width="15" height="14" viewBox="0 0 15 14" fill="none" xmlns="http://www.w3.org/2000/svg">
<path fill-rule="evenodd" clip-rule="evenodd" d="M7.2953 7.80377C6.86386 7.80377 6.43372 7.65928 6.07387 7.37028L3.18151 5.006C2.97321 4.836 2.94097 4.52673 3.108 4.3162C3.27631 4.10631 3.5807 4.07297 3.78836 4.24231L6.67813 6.60398C7.04121 6.89559 7.55261 6.89559 7.91827 6.60136L10.779 4.24362C10.9867 4.07166 11.2911 4.10435 11.46 4.31489C11.6283 4.52477 11.5967 4.83338 11.3897 5.00469L8.52382 7.36636C8.16139 7.65797 7.72802 7.80377 7.2953 7.80377Z" fill="white"/>
<mask id="mask0_475_61" style="mask-type:alpha" maskUnits="userSpaceOnUse" x="0" y="0" width="15" height="14">
<path fill-rule="evenodd" clip-rule="evenodd" d="M0.345215 0.307617H14.2104V13.0575H0.345215V0.307617Z" fill="white"/>
</mask>
<g mask="url(#mask0_475_61)">
<path fill-rule="evenodd" clip-rule="evenodd" d="M4.11076 12.0767H10.4436C10.4449 12.0754 10.4501 12.0767 10.4539 12.0767C11.1898 12.0767 11.8424 11.81 12.3428 11.3032C12.9239 10.7167 13.2431 9.87394 13.2431 8.93045V4.43988C13.2431 2.61371 12.0655 1.28838 10.4436 1.28838H4.11205C2.49014 1.28838 1.31256 2.61371 1.31256 4.43988V8.93045C1.31256 9.87394 1.63243 10.7167 2.21283 11.3032C2.71327 11.81 3.36655 12.0767 4.10173 12.0767H4.11076ZM4.09979 13.0575C3.10472 13.0575 2.21605 12.6913 1.52989 11.9983C0.765686 11.2254 0.345215 10.1361 0.345215 8.93045V4.43988C0.345215 2.0841 1.96455 0.307617 4.11205 0.307617H10.4436C12.5911 0.307617 14.2105 2.0841 14.2105 4.43988V8.93045C14.2105 10.1361 13.79 11.2254 13.0258 11.9983C12.3403 12.6907 11.4509 13.0575 10.4539 13.0575H10.4436H4.11205H4.09979Z" fill="white"/>
</g>
</svg>
