<svg width="24" height="24" viewBox="0 0 24 24" fill="none" xmlns="http://www.w3.org/2000/svg">
<circle cx="12" cy="12" r="11.5" fill="#CEC27B" stroke="#CEC27B"/>
<path fill-rule="evenodd" clip-rule="evenodd" d="M14.8492 7.20001C16.731 7.20001 18.15 8.70481 18.15 10.7003V14.5041C18.15 15.5254 17.7815 16.4481 17.1119 17.1028C16.5112 17.6893 15.7319 18 14.8582 18H9.29011C8.41813 18 7.6394 17.6899 7.03812 17.1028C6.36846 16.4481 6 15.5254 6 14.5041V10.7003C6 8.70481 7.41901 7.20001 9.30084 7.20001H14.8492ZM14.8492 8.03078H9.30084C7.87958 8.03078 6.84767 9.15343 6.84767 10.7003V14.5041C6.84767 15.3033 7.12797 16.0172 7.63658 16.514C8.07511 16.9433 8.64757 17.1692 9.2918 17.1692H14.8492C14.8503 17.1681 14.8548 17.1692 14.8582 17.1692C15.503 17.1692 16.0749 16.9433 16.5134 16.514C17.0226 16.0172 17.3023 15.3033 17.3023 14.5041V10.7003C17.3023 9.15343 16.2704 8.03078 14.8492 8.03078ZM15.7398 10.5944C15.8873 10.7722 15.8596 11.0336 15.6782 11.1787L13.1668 13.1792C12.8492 13.4262 12.4695 13.5497 12.0903 13.5497C11.7122 13.5497 11.3353 13.4273 11.0199 13.1825L8.48538 11.1798C8.30285 11.0358 8.27459 10.7739 8.42096 10.5955C8.56845 10.4177 8.83519 10.3895 9.01716 10.5329L11.5494 12.5334C11.8676 12.7805 12.3157 12.7805 12.6362 12.5312L15.143 10.5341C15.325 10.3884 15.5917 10.4161 15.7398 10.5944Z" fill="white"/>
</svg>
