<svg width="24" height="24" viewBox="0 0 24 24" fill="none" xmlns="http://www.w3.org/2000/svg">
<path d="M23.4951 23.6371L23.5009 23.6361V15.1967C23.5009 11.0681 22.6121 7.88779 17.7855 7.88779C15.4652 7.88779 13.9081 9.16108 13.2724 10.3682H13.2053V8.27323H8.62891V23.6361H13.3941V16.029C13.3941 14.026 13.7738 12.0893 16.2543 12.0893C18.6982 12.0893 18.7347 14.375 18.7347 16.1574V23.6371H23.4951Z" fill="#335C67"/>
<path d="M0.378906 8.34567H5.1499V23.7085H0.378906V8.34567Z" fill="#335C67"/>
<path d="M2.76327 0.696777C1.23781 0.696777 0 1.93459 0 3.46004C0 4.9855 1.23781 6.2492 2.76327 6.2492C4.28872 6.2492 5.52653 4.9855 5.52653 3.46004C5.52557 1.93459 4.28776 0.696777 2.76327 0.696777V0.696777Z" fill="#335C67"/>
</svg>
