<svg width="44" height="44" viewBox="0 0 44 44" fill="none" xmlns="http://www.w3.org/2000/svg">
<circle cx="22" cy="22" r="22" fill="#CEC27B"/>
<path fill-rule="evenodd" clip-rule="evenodd" d="M22.5817 9.625C28.2097 9.625 32.7885 14.2384 32.7885 19.9097C32.7885 26.8812 24.8012 33.75 22.5817 33.75C20.3622 33.75 12.375 26.8812 12.375 19.9097C12.375 14.2384 16.9538 9.625 22.5817 9.625ZM22.5817 11.4808C17.9769 11.4808 14.2308 15.2628 14.2308 19.9097C14.2308 25.8222 21.1887 31.5825 22.5817 31.8893C23.9748 31.5812 30.9327 25.8209 30.9327 19.9097C30.9327 15.2628 27.1865 11.4808 22.5817 11.4808ZM22.583 15.8109C24.8 15.8109 26.6038 17.6147 26.6038 19.833C26.6038 22.05 24.8 23.8526 22.583 23.8526C20.3659 23.8526 18.5621 22.05 18.5621 19.833C18.5621 17.6147 20.3659 15.8109 22.583 15.8109ZM22.583 17.6667C21.3891 17.6667 20.4179 18.6379 20.4179 19.833C20.4179 21.0268 21.3891 21.9968 22.583 21.9968C23.7768 21.9968 24.748 21.0268 24.748 19.833C24.748 18.6379 23.7768 17.6667 22.583 17.6667Z" fill="white"/>
</svg>
