<svg width="12" height="14" viewBox="0 0 12 14" fill="none" xmlns="http://www.w3.org/2000/svg">
<path fill-rule="evenodd" clip-rule="evenodd" d="M5.78957 4.5578C5.1586 4.5578 4.64533 5.07107 4.64533 5.70269C4.64533 6.33366 5.1586 6.84627 5.78957 6.84627C6.42054 6.84627 6.93381 6.33366 6.93381 5.70269C6.93381 5.07107 6.42054 4.5578 5.78957 4.5578ZM5.78957 7.82705C4.61787 7.82705 3.66455 6.87439 3.66455 5.70269C3.66455 4.53034 4.61787 3.57703 5.78957 3.57703C6.96127 3.57703 7.91459 4.53034 7.91459 5.70269C7.91459 6.87439 6.96127 7.82705 5.78957 7.82705Z" fill="white"/>
<mask id="mask0_1597_292" style="mask-type:alpha" maskUnits="userSpaceOnUse" x="0" y="0" width="12" height="14">
<path fill-rule="evenodd" clip-rule="evenodd" d="M0.39502 0.307739H11.1832V13.0578H0.39502V0.307739Z" fill="white"/>
</mask>
<g mask="url(#mask0_1597_292)">
<path fill-rule="evenodd" clip-rule="evenodd" d="M5.78881 1.28851C3.35517 1.28851 1.37531 3.28733 1.37531 5.74319C1.37531 8.86793 5.05257 11.9123 5.78881 12.0744C6.52505 11.9116 10.2023 8.86728 10.2023 5.74319C10.2023 3.28733 8.22245 1.28851 5.78881 1.28851ZM5.78881 13.0578C4.6158 13.0578 0.394531 9.42763 0.394531 5.74319C0.394531 2.74594 2.81444 0.307739 5.78881 0.307739C8.76318 0.307739 11.1831 2.74594 11.1831 5.74319C11.1831 9.42763 6.96182 13.0578 5.78881 13.0578Z" fill="white"/>
</g>
</svg>
