<svg width="24" height="24" viewBox="0 0 24 24" fill="none" xmlns="http://www.w3.org/2000/svg">
<circle cx="12" cy="12" r="11.5" fill="#CEC27B" stroke="#CEC27B"/>
<path fill-rule="evenodd" clip-rule="evenodd" d="M6.45693 6.95033C6.45834 6.95033 6.42322 6.98686 6.37896 7.03041C6.20898 7.19548 5.85707 7.53897 5.85352 8.25755C5.84793 9.26273 6.50891 11.1291 9.69158 14.3111C12.8595 17.4776 14.723 18.1463 15.7303 18.1463H15.745C16.4636 18.1428 16.8064 17.7902 16.9722 17.6209C17.0227 17.5689 17.0635 17.531 17.0923 17.5071C17.7919 16.8033 18.1501 16.2793 18.1466 15.9435C18.1417 15.6007 17.7153 15.1954 17.126 14.6349C16.9385 14.4565 16.7348 14.2626 16.5198 14.0477C15.9628 13.4921 15.6867 13.5869 15.0799 13.8004C14.2405 14.0947 13.0885 14.4951 11.2987 12.7046C9.50614 10.9134 9.90723 9.76286 10.2008 8.92346C10.413 8.31656 10.5099 8.0398 9.95218 7.48207C9.73373 7.26432 9.53775 7.05781 9.35723 6.86815C8.80021 6.28232 8.39843 5.85876 8.05775 5.85384H8.05213C7.71567 5.85384 7.19307 6.21349 6.45342 6.95314C6.45553 6.95104 6.45623 6.95033 6.45693 6.95033ZM15.731 19.2C13.9806 19.2 11.6984 17.8064 8.94702 15.0564C6.1851 12.2951 4.78939 10.0059 4.79986 8.25193C4.80624 7.09293 5.41384 6.49938 5.64213 6.27671C5.65407 6.26195 5.69481 6.22192 5.70886 6.20787C6.71613 5.19988 7.39537 4.79247 8.0711 4.80009C8.8557 4.81074 9.41413 5.39797 10.1208 6.14184C10.2957 6.32588 10.4853 6.52607 10.6967 6.7368C11.7223 7.76234 11.4301 8.59893 11.1955 9.27046C10.9398 10.0031 10.7185 10.6353 12.0433 11.9601C13.3695 13.2848 14.0016 13.0636 14.7315 12.8058C15.4037 12.5712 16.2381 12.2776 17.2651 13.3031C17.473 13.511 17.6704 13.6986 17.8523 13.8721C18.5997 14.5822 19.1897 15.1435 19.1997 15.9302C19.208 16.601 18.8006 17.2845 17.7947 18.291L17.3494 17.989L17.7259 18.3571C17.5032 18.5854 16.9104 19.1937 15.7507 19.2H15.731Z" fill="white"/>
</svg>
