<svg width="15" height="14" viewBox="0 0 15 14" fill="none" xmlns="http://www.w3.org/2000/svg">
<mask id="mask0_475_330" style="mask-type:alpha" maskUnits="userSpaceOnUse" x="0" y="0" width="15" height="14">
<path fill-rule="evenodd" clip-rule="evenodd" d="M0.990479 0.307861H14.2106V13.7114H0.990479V0.307861Z" fill="white"/>
</mask>
<g mask="url(#mask0_475_330)">
<path fill-rule="evenodd" clip-rule="evenodd" d="M2.51184 2.30903C2.51313 2.30903 2.48088 2.34303 2.44026 2.38357C2.28419 2.53722 1.9611 2.85695 1.95788 3.52584C1.95272 4.4615 2.55956 6.19878 5.48158 9.16071C8.39006 12.1083 10.101 12.7307 11.0257 12.7307H11.0393C11.699 12.7275 12.0137 12.3992 12.1659 12.2417C12.2123 12.1933 12.2498 12.158 12.2762 12.1357C12.9185 11.4806 13.2474 10.9928 13.2442 10.6803C13.2397 10.3612 12.8482 9.98391 12.3071 9.46214C12.135 9.29606 11.9479 9.1156 11.7506 8.91552C11.2392 8.39833 10.9858 8.4866 10.4286 8.68537C9.65792 8.95933 8.60029 9.33202 6.9571 7.66536C5.31133 5.99805 5.67956 4.92704 5.94913 4.14569C6.14389 3.58076 6.23288 3.32315 5.72084 2.80399C5.52027 2.6013 5.34035 2.40907 5.17461 2.23253C4.66321 1.68722 4.29433 1.29295 3.98156 1.28837H3.9764C3.66749 1.28837 3.18769 1.62314 2.50862 2.31164C2.51055 2.30968 2.51119 2.30903 2.51184 2.30903V2.30903ZM11.0264 13.7115C9.41931 13.7115 7.32405 12.4143 4.79799 9.85445C2.26227 7.28417 0.980859 5.15327 0.990533 3.52061C0.996337 2.44176 1.55417 1.88926 1.76376 1.68199C1.77473 1.66826 1.81213 1.63099 1.82503 1.61791C2.74981 0.679636 3.37342 0.300403 3.99381 0.307595C4.71416 0.317403 5.22685 0.864021 5.87561 1.55645C6.03619 1.72776 6.21031 1.9141 6.40443 2.11026C7.34597 3.06488 7.0777 3.84361 6.8623 4.46869C6.62756 5.15066 6.42442 5.73912 7.64069 6.97228C8.85825 8.20544 9.43866 7.99948 10.1087 7.75952C10.7259 7.54113 11.492 7.26782 12.4348 8.22244C12.6257 8.41598 12.8069 8.59056 12.974 8.75206C13.6601 9.4131 14.2018 9.93553 14.2109 10.6678C14.2186 11.2923 13.8446 11.9285 12.9211 12.8654L12.5122 12.5843L12.8579 12.9269C12.6535 13.1394 12.1092 13.7056 11.0444 13.7115H11.0264Z" fill="white"/>
</g>
</svg>
